<mxfile host="Electron" modified="2024-11-05T01:53:20.890Z" agent="Mozilla/5.0 (Macintosh; Intel Mac OS X 10_15_7) AppleWebKit/537.36 (KHTML, like Gecko) draw.io/24.2.5 Chrome/120.0.6099.109 Electron/28.1.0 Safari/537.36" etag="hERLsW8iLB-yFxrYE6SN" version="24.2.5" type="device">
  <diagram id="7I-HaSQ-xsY7uXwMg8Wh" name="Page-1">
    <mxGraphModel dx="2474" dy="1214" grid="1" gridSize="10" guides="1" tooltips="1" connect="1" arrows="1" fold="1" page="0" pageScale="1" pageWidth="850" pageHeight="1100" math="0" shadow="0">
      <root>
        <mxCell id="0" />
        <mxCell id="1" parent="0" />
        <mxCell id="UXceuLxqz-v_dB1o4-cX-70" value="Availability Zone 1" style="fillColor=none;strokeColor=#147EBA;dashed=1;verticalAlign=top;fontStyle=0;fontColor=#000000;labelBackgroundColor=#FFFFFF;labelBorderColor=none;fontSize=16;container=0;spacingRight=0;spacingLeft=0;" parent="1" vertex="1">
          <mxGeometry x="70" y="339.5" width="760" height="140" as="geometry" />
        </mxCell>
        <mxCell id="UXceuLxqz-v_dB1o4-cX-69" value="Availability Zone 2" style="fillColor=none;strokeColor=#147EBA;dashed=1;verticalAlign=top;fontStyle=0;fontColor=#000000;labelBackgroundColor=#FFFFFF;labelBorderColor=none;fontSize=16;container=0;spacingRight=0;spacingLeft=0;" parent="1" vertex="1">
          <mxGeometry x="70" y="509.5" width="760" height="140" as="geometry" />
        </mxCell>
        <mxCell id="UXceuLxqz-v_dB1o4-cX-35" value="AWS Cloud" style="points=[[0,0],[0.25,0],[0.5,0],[0.75,0],[1,0],[1,0.25],[1,0.5],[1,0.75],[1,1],[0.75,1],[0.5,1],[0.25,1],[0,1],[0,0.75],[0,0.5],[0,0.25]];outlineConnect=0;gradientColor=none;html=1;whiteSpace=wrap;fontSize=14;fontStyle=0;container=0;pointerEvents=0;collapsible=0;recursiveResize=0;shape=mxgraph.aws4.group;grIcon=mxgraph.aws4.group_aws_cloud_alt;strokeColor=#232F3E;fillColor=none;verticalAlign=top;align=left;spacingLeft=30;fontColor=#232F3E;dashed=0;labelBackgroundColor=#FFFFFF;labelBorderColor=none;" parent="1" vertex="1">
          <mxGeometry x="-120" y="221" width="1390" height="819" as="geometry" />
        </mxCell>
        <mxCell id="UXceuLxqz-v_dB1o4-cX-81" value="Internet&lt;div&gt;(Inbound)&lt;/div&gt;" style="sketch=0;outlineConnect=0;fontColor=#232F3E;gradientColor=none;fillColor=#232F3D;strokeColor=none;dashed=0;verticalLabelPosition=bottom;verticalAlign=top;align=center;html=1;fontSize=12;fontStyle=0;aspect=fixed;pointerEvents=1;shape=mxgraph.aws4.internet_alt22;labelBackgroundColor=#FFFFFF;labelBorderColor=none;container=0;" parent="1" vertex="1">
          <mxGeometry x="-240" y="454" width="78" height="78" as="geometry" />
        </mxCell>
        <mxCell id="UXceuLxqz-v_dB1o4-cX-82" style="edgeStyle=orthogonalEdgeStyle;rounded=0;orthogonalLoop=1;jettySize=auto;html=1;strokeColor=#990000;strokeWidth=2;fontSize=20;fontColor=#66CC00;endArrow=classic;endFill=1;" parent="1" source="UXceuLxqz-v_dB1o4-cX-81" target="UXceuLxqz-v_dB1o4-cX-60" edge="1">
          <mxGeometry relative="1" as="geometry" />
        </mxCell>
        <mxCell id="UXceuLxqz-v_dB1o4-cX-36" value="AWS Region" style="points=[[0,0],[0.25,0],[0.5,0],[0.75,0],[1,0],[1,0.25],[1,0.5],[1,0.75],[1,1],[0.75,1],[0.5,1],[0.25,1],[0,1],[0,0.75],[0,0.5],[0,0.25]];outlineConnect=0;gradientColor=none;html=1;whiteSpace=wrap;fontSize=14;fontStyle=0;container=0;pointerEvents=0;collapsible=0;recursiveResize=0;shape=mxgraph.aws4.group;grIcon=mxgraph.aws4.group_region;strokeColor=#147EBA;fillColor=none;verticalAlign=top;align=left;spacingLeft=30;fontColor=#000000;dashed=1;labelBackgroundColor=#FFFFFF;labelBorderColor=none;" parent="1" vertex="1">
          <mxGeometry x="-80" y="258" width="1310" height="632" as="geometry" />
        </mxCell>
        <mxCell id="UXceuLxqz-v_dB1o4-cX-37" value="VPC" style="points=[[0,0],[0.25,0],[0.5,0],[0.75,0],[1,0],[1,0.25],[1,0.5],[1,0.75],[1,1],[0.75,1],[0.5,1],[0.25,1],[0,1],[0,0.75],[0,0.5],[0,0.25]];outlineConnect=0;gradientColor=none;html=1;whiteSpace=wrap;fontSize=14;fontStyle=0;container=0;pointerEvents=0;collapsible=0;recursiveResize=0;shape=mxgraph.aws4.group;grIcon=mxgraph.aws4.group_vpc;strokeColor=#248814;fillColor=none;verticalAlign=top;align=left;spacingLeft=30;fontColor=#000000;dashed=0;labelBackgroundColor=#FFFFFF;labelBorderColor=none;" parent="1" vertex="1">
          <mxGeometry y="299.5" width="900" height="561.5" as="geometry" />
        </mxCell>
        <mxCell id="UXceuLxqz-v_dB1o4-cX-71" style="edgeStyle=orthogonalEdgeStyle;rounded=0;orthogonalLoop=1;jettySize=auto;html=1;strokeColor=#4D4D4D;strokeWidth=2;fontSize=20;fontColor=#66CC00;endArrow=classic;endFill=1;entryX=0;entryY=0.5;entryDx=0;entryDy=0;entryPerimeter=0;startArrow=none;startFill=0;" parent="1" target="UXceuLxqz-v_dB1o4-cX-72" edge="1">
          <mxGeometry relative="1" as="geometry">
            <mxPoint x="940" y="580" as="targetPoint" />
            <mxPoint x="630" y="730" as="sourcePoint" />
            <Array as="points">
              <mxPoint x="630" y="731" />
              <mxPoint x="870" y="731" />
              <mxPoint x="870" y="531" />
            </Array>
          </mxGeometry>
        </mxCell>
        <mxCell id="rMoLMh5zpQFOaJVMMnbp-21" style="edgeStyle=orthogonalEdgeStyle;rounded=0;orthogonalLoop=1;jettySize=auto;html=1;strokeColor=#4D4D4D;strokeWidth=2;align=center;verticalAlign=middle;fontFamily=Helvetica;fontSize=20;fontColor=#66CC00;labelBackgroundColor=default;startArrow=none;startFill=0;endArrow=classic;endFill=1;exitX=0.5;exitY=0;exitDx=0;exitDy=0;exitPerimeter=0;entryX=0.5;entryY=1;entryDx=0;entryDy=0;" parent="1" source="UXceuLxqz-v_dB1o4-cX-72" target="rMoLMh5zpQFOaJVMMnbp-18" edge="1">
          <mxGeometry relative="1" as="geometry">
            <mxPoint x="929" y="353.25" as="sourcePoint" />
          </mxGeometry>
        </mxCell>
        <mxCell id="rMoLMh5zpQFOaJVMMnbp-26" style="edgeStyle=orthogonalEdgeStyle;rounded=0;orthogonalLoop=1;jettySize=auto;html=1;strokeColor=#4D4D4D;strokeWidth=2;align=center;verticalAlign=middle;fontFamily=Helvetica;fontSize=20;fontColor=#66CC00;labelBackgroundColor=default;startArrow=none;startFill=0;endArrow=classic;endFill=1;dashed=1;entryX=0.5;entryY=0;entryDx=0;entryDy=0;" parent="1" source="UXceuLxqz-v_dB1o4-cX-72" target="rMoLMh5zpQFOaJVMMnbp-22" edge="1">
          <mxGeometry relative="1" as="geometry">
            <Array as="points">
              <mxPoint x="1076" y="679" />
            </Array>
          </mxGeometry>
        </mxCell>
        <mxCell id="UXceuLxqz-v_dB1o4-cX-72" value="Transit Gateway" style="sketch=0;points=[[0,0,0],[0.25,0,0],[0.5,0,0],[0.75,0,0],[1,0,0],[0,1,0],[0.25,1,0],[0.5,1,0],[0.75,1,0],[1,1,0],[0,0.25,0],[0,0.5,0],[0,0.75,0],[1,0.25,0],[1,0.5,0],[1,0.75,0]];outlineConnect=0;fontColor=#232F3E;gradientColor=#945DF2;gradientDirection=north;fillColor=#5A30B5;strokeColor=#ffffff;dashed=0;verticalLabelPosition=bottom;verticalAlign=top;align=center;html=1;fontSize=12;fontStyle=0;aspect=fixed;shape=mxgraph.aws4.resourceIcon;resIcon=mxgraph.aws4.transit_gateway;labelBackgroundColor=#FFFFFF;labelBorderColor=none;spacingTop=0;container=0;" parent="1" vertex="1">
          <mxGeometry x="1037" y="491.5" width="78" height="78" as="geometry" />
        </mxCell>
        <mxCell id="UXceuLxqz-v_dB1o4-cX-38" value="Private subnet" style="points=[[0,0],[0.25,0],[0.5,0],[0.75,0],[1,0],[1,0.25],[1,0.5],[1,0.75],[1,1],[0.75,1],[0.5,1],[0.25,1],[0,1],[0,0.75],[0,0.5],[0,0.25]];outlineConnect=0;gradientColor=none;html=1;whiteSpace=wrap;fontSize=12;fontStyle=0;container=0;pointerEvents=0;collapsible=0;recursiveResize=0;shape=mxgraph.aws4.group;grIcon=mxgraph.aws4.group_security_group;grStroke=0;strokeColor=#147EBA;fillColor=#E6F2F8;verticalAlign=top;align=left;spacingLeft=30;fontColor=#147EBA;dashed=0;labelBackgroundColor=#FFFFFF;labelBorderColor=none;" parent="1" vertex="1">
          <mxGeometry x="340" y="379.5" width="160" height="80" as="geometry" />
        </mxCell>
        <mxCell id="UXceuLxqz-v_dB1o4-cX-42" value="Data subnet" style="points=[[0,0],[0.25,0],[0.5,0],[0.75,0],[1,0],[1,0.25],[1,0.5],[1,0.75],[1,1],[0.75,1],[0.5,1],[0.25,1],[0,1],[0,0.75],[0,0.5],[0,0.25]];outlineConnect=0;gradientColor=none;html=1;whiteSpace=wrap;fontSize=12;fontStyle=0;container=0;pointerEvents=0;collapsible=0;recursiveResize=0;shape=mxgraph.aws4.group;grIcon=mxgraph.aws4.group_security_group;grStroke=0;strokeColor=#147EBA;fillColor=#E6F2F8;verticalAlign=top;align=left;spacingLeft=30;fontColor=#147EBA;dashed=0;labelBackgroundColor=#FFFFFF;labelBorderColor=none;" parent="1" vertex="1">
          <mxGeometry x="540" y="379.5" width="160" height="80" as="geometry" />
        </mxCell>
        <mxCell id="UXceuLxqz-v_dB1o4-cX-43" value="VPC Endpoints" style="sketch=0;outlineConnect=0;fontColor=#232F3E;gradientColor=none;fillColor=#4D27AA;strokeColor=none;dashed=0;verticalLabelPosition=bottom;verticalAlign=top;align=center;html=1;fontSize=12;fontStyle=0;aspect=fixed;pointerEvents=1;shape=mxgraph.aws4.endpoints;labelBackgroundColor=#FFFFFF;labelBorderColor=none;container=0;" parent="1" vertex="1">
          <mxGeometry x="740" y="399.25" width="40" height="40" as="geometry" />
        </mxCell>
        <mxCell id="UXceuLxqz-v_dB1o4-cX-47" value="Private subnet" style="points=[[0,0],[0.25,0],[0.5,0],[0.75,0],[1,0],[1,0.25],[1,0.5],[1,0.75],[1,1],[0.75,1],[0.5,1],[0.25,1],[0,1],[0,0.75],[0,0.5],[0,0.25]];outlineConnect=0;gradientColor=none;html=1;whiteSpace=wrap;fontSize=12;fontStyle=0;container=0;pointerEvents=0;collapsible=0;recursiveResize=0;shape=mxgraph.aws4.group;grIcon=mxgraph.aws4.group_security_group;grStroke=0;strokeColor=#147EBA;fillColor=#E6F2F8;verticalAlign=top;align=left;spacingLeft=30;fontColor=#147EBA;dashed=0;labelBackgroundColor=#FFFFFF;labelBorderColor=none;" parent="1" vertex="1">
          <mxGeometry x="340" y="549.5" width="160" height="80" as="geometry" />
        </mxCell>
        <mxCell id="UXceuLxqz-v_dB1o4-cX-51" value="Data subnet" style="points=[[0,0],[0.25,0],[0.5,0],[0.75,0],[1,0],[1,0.25],[1,0.5],[1,0.75],[1,1],[0.75,1],[0.5,1],[0.25,1],[0,1],[0,0.75],[0,0.5],[0,0.25]];outlineConnect=0;gradientColor=none;html=1;whiteSpace=wrap;fontSize=12;fontStyle=0;container=0;pointerEvents=0;collapsible=0;recursiveResize=0;shape=mxgraph.aws4.group;grIcon=mxgraph.aws4.group_security_group;grStroke=0;strokeColor=#147EBA;fillColor=#E6F2F8;verticalAlign=top;align=left;spacingLeft=30;fontColor=#147EBA;dashed=0;labelBackgroundColor=#FFFFFF;labelBorderColor=none;" parent="1" vertex="1">
          <mxGeometry x="540" y="549.5" width="160" height="80" as="geometry" />
        </mxCell>
        <mxCell id="UXceuLxqz-v_dB1o4-cX-52" value="VPC Endpoints" style="sketch=0;outlineConnect=0;fontColor=#232F3E;gradientColor=none;fillColor=#4D27AA;strokeColor=none;dashed=0;verticalLabelPosition=bottom;verticalAlign=top;align=center;html=1;fontSize=12;fontStyle=0;aspect=fixed;pointerEvents=1;shape=mxgraph.aws4.endpoints;labelBackgroundColor=#FFFFFF;labelBorderColor=none;container=0;" parent="1" vertex="1">
          <mxGeometry x="740" y="569.5" width="40" height="40" as="geometry" />
        </mxCell>
        <mxCell id="UXceuLxqz-v_dB1o4-cX-58" value="Route 53&lt;div&gt;Resolver&lt;/div&gt;" style="sketch=0;outlineConnect=0;fontColor=#232F3E;gradientColor=none;fillColor=#4D27AA;strokeColor=none;dashed=0;verticalLabelPosition=bottom;verticalAlign=top;align=center;html=1;fontSize=12;fontStyle=0;aspect=fixed;pointerEvents=1;shape=mxgraph.aws4.route_53_resolver;labelBackgroundColor=#FFFFFF;labelBorderColor=none;container=0;" parent="1" vertex="1">
          <mxGeometry x="840" y="780" width="40" height="40" as="geometry" />
        </mxCell>
        <mxCell id="UXceuLxqz-v_dB1o4-cX-59" value="VPC Flow Logs" style="sketch=0;outlineConnect=0;fontColor=#232F3E;gradientColor=none;fillColor=#4D27AA;strokeColor=none;dashed=0;verticalLabelPosition=bottom;verticalAlign=top;align=center;html=1;fontSize=12;fontStyle=0;aspect=fixed;pointerEvents=1;shape=mxgraph.aws4.flow_logs;container=0;" parent="1" vertex="1">
          <mxGeometry x="760" y="780" width="40" height="40" as="geometry" />
        </mxCell>
        <mxCell id="UXceuLxqz-v_dB1o4-cX-62" style="edgeStyle=orthogonalEdgeStyle;rounded=0;orthogonalLoop=1;jettySize=auto;html=1;strokeColor=#007FFF;strokeWidth=2;startArrow=none;startFill=0;endArrow=none;endFill=0;entryX=0.5;entryY=0;entryDx=0;entryDy=0;" parent="1" source="UXceuLxqz-v_dB1o4-cX-47" target="A_zSdyRW-YI11dEX9rVC-1" edge="1">
          <mxGeometry relative="1" as="geometry">
            <Array as="points">
              <mxPoint x="519" y="590" />
            </Array>
            <mxPoint x="519" y="860" as="targetPoint" />
          </mxGeometry>
        </mxCell>
        <mxCell id="UXceuLxqz-v_dB1o4-cX-64" style="edgeStyle=orthogonalEdgeStyle;rounded=0;orthogonalLoop=1;jettySize=auto;html=1;strokeColor=#007FFF;strokeWidth=2;startArrow=none;startFill=0;endArrow=none;endFill=0;entryX=0.5;entryY=0;entryDx=0;entryDy=0;" parent="1" source="UXceuLxqz-v_dB1o4-cX-51" target="A_zSdyRW-YI11dEX9rVC-1" edge="1">
          <mxGeometry relative="1" as="geometry">
            <mxPoint x="619" y="549.5" as="sourcePoint" />
            <mxPoint x="519" y="860" as="targetPoint" />
            <Array as="points">
              <mxPoint x="519" y="590" />
            </Array>
          </mxGeometry>
        </mxCell>
        <mxCell id="UXceuLxqz-v_dB1o4-cX-65" style="edgeStyle=orthogonalEdgeStyle;rounded=0;orthogonalLoop=1;jettySize=auto;html=1;strokeColor=#007FFF;strokeWidth=2;startArrow=none;startFill=0;endArrow=none;endFill=0;entryX=0.5;entryY=0;entryDx=0;entryDy=0;" parent="1" source="UXceuLxqz-v_dB1o4-cX-38" target="A_zSdyRW-YI11dEX9rVC-1" edge="1">
          <mxGeometry relative="1" as="geometry">
            <Array as="points">
              <mxPoint x="519" y="420" />
            </Array>
            <mxPoint x="519" y="860" as="targetPoint" />
          </mxGeometry>
        </mxCell>
        <mxCell id="UXceuLxqz-v_dB1o4-cX-66" style="edgeStyle=orthogonalEdgeStyle;rounded=0;orthogonalLoop=1;jettySize=auto;html=1;strokeColor=#007FFF;strokeWidth=2;startArrow=none;startFill=0;endArrow=none;endFill=0;entryX=0.5;entryY=0;entryDx=0;entryDy=0;" parent="1" target="A_zSdyRW-YI11dEX9rVC-1" edge="1">
          <mxGeometry relative="1" as="geometry">
            <mxPoint x="540" y="419.5" as="sourcePoint" />
            <mxPoint x="519" y="859" as="targetPoint" />
            <Array as="points">
              <mxPoint x="519" y="420" />
            </Array>
          </mxGeometry>
        </mxCell>
        <mxCell id="UXceuLxqz-v_dB1o4-cX-60" value="Internet Gateway" style="sketch=0;outlineConnect=0;fontColor=#232F3E;gradientColor=none;fillColor=#4D27AA;strokeColor=none;dashed=0;verticalLabelPosition=bottom;verticalAlign=top;align=center;html=1;fontSize=12;fontStyle=0;aspect=fixed;pointerEvents=1;shape=mxgraph.aws4.internet_gateway;labelBackgroundColor=#FFFFFF;labelBorderColor=none;spacingTop=0;container=0;" parent="1" vertex="1">
          <mxGeometry x="-40" y="454" width="78" height="78" as="geometry" />
        </mxCell>
        <mxCell id="LR0yq6Ry5PRDqokSGrmA-1" style="edgeStyle=orthogonalEdgeStyle;shape=connector;rounded=0;orthogonalLoop=1;jettySize=auto;html=1;entryX=0.5;entryY=0;entryDx=0;entryDy=0;labelBackgroundColor=default;strokeColor=#006633;strokeWidth=2;fontFamily=Helvetica;fontSize=11;fontColor=default;endArrow=none;endFill=0;startArrow=none;startFill=0;" parent="1" source="twSOo08IM1K4SMwuDOF1-1" target="ZZcy7LWg9IrgokTyuWV1-1" edge="1">
          <mxGeometry relative="1" as="geometry">
            <Array as="points">
              <mxPoint x="289" y="419" />
            </Array>
            <mxPoint x="316" y="840" as="targetPoint" />
          </mxGeometry>
        </mxCell>
        <mxCell id="LR0yq6Ry5PRDqokSGrmA-4" style="edgeStyle=orthogonalEdgeStyle;shape=connector;rounded=0;orthogonalLoop=1;jettySize=auto;html=1;labelBackgroundColor=default;strokeColor=#006633;strokeWidth=2;fontFamily=Helvetica;fontSize=11;fontColor=default;startArrow=none;startFill=0;endArrow=none;endFill=0;" parent="1" edge="1">
          <mxGeometry relative="1" as="geometry">
            <mxPoint x="288" y="589" as="targetPoint" />
            <mxPoint x="268" y="589.2285714285715" as="sourcePoint" />
          </mxGeometry>
        </mxCell>
        <mxCell id="ZZcy7LWg9IrgokTyuWV1-1" value="Public Route Table" style="shape=table;startSize=20;container=1;collapsible=1;childLayout=tableLayout;fixedRows=0;rowLines=1;fontStyle=1;align=center;resizeLast=1;labelBackgroundColor=none;strokeColor=#000000;strokeWidth=1;fontSize=12;fillColor=#238814;perimeterSpacing=0;rounded=0;shadow=0;sketch=0;swimlaneLine=1;swimlaneFillColor=none;right=1;left=1;columnLines=1;top=1;bottom=1;swimlaneHead=1;swimlaneBody=1;horizontal=1;fontColor=#FFFFFF;resizeLastRow=0;" parent="1" vertex="1">
          <mxGeometry x="190" y="683" width="198" height="80" as="geometry">
            <mxRectangle x="380" y="210" width="80" height="30" as="alternateBounds" />
          </mxGeometry>
        </mxCell>
        <mxCell id="ZZcy7LWg9IrgokTyuWV1-2" value="" style="shape=tableRow;horizontal=0;startSize=0;swimlaneHead=0;swimlaneBody=0;fillColor=#FFFFFF;collapsible=0;dropTarget=0;points=[[0,0.5],[1,0.5]];portConstraint=eastwest;top=0;left=1;right=1;bottom=0;labelBackgroundColor=none;strokeColor=default;strokeWidth=1;fontSize=16;fontColor=#330000;align=center;fillOpacity=100;" parent="ZZcy7LWg9IrgokTyuWV1-1" vertex="1">
          <mxGeometry y="20" width="198" height="20" as="geometry" />
        </mxCell>
        <mxCell id="ZZcy7LWg9IrgokTyuWV1-3" value="Destination" style="shape=partialRectangle;connectable=0;fillColor=#FFFFFF;top=0;left=1;bottom=1;right=1;fontStyle=1;overflow=hidden;labelBackgroundColor=none;strokeColor=#000000;strokeWidth=1;fontSize=12;fontColor=#330000;" parent="ZZcy7LWg9IrgokTyuWV1-2" vertex="1">
          <mxGeometry width="88" height="20" as="geometry">
            <mxRectangle width="88" height="20" as="alternateBounds" />
          </mxGeometry>
        </mxCell>
        <mxCell id="ZZcy7LWg9IrgokTyuWV1-4" value="Target" style="shape=partialRectangle;connectable=0;fillColor=#FFFFFF;top=0;left=1;bottom=1;right=1;align=center;spacingLeft=6;fontStyle=1;overflow=hidden;labelBackgroundColor=none;strokeColor=#000000;strokeWidth=1;fontSize=12;fontColor=#330000;" parent="ZZcy7LWg9IrgokTyuWV1-2" vertex="1">
          <mxGeometry x="88" width="110" height="20" as="geometry">
            <mxRectangle width="110" height="20" as="alternateBounds" />
          </mxGeometry>
        </mxCell>
        <mxCell id="ZZcy7LWg9IrgokTyuWV1-5" value="" style="shape=tableRow;horizontal=0;startSize=0;swimlaneHead=0;swimlaneBody=0;fillColor=#FFFFFF;collapsible=0;dropTarget=0;points=[[0,0.5],[1,0.5]];portConstraint=eastwest;top=0;left=1;right=1;bottom=0;labelBackgroundColor=none;strokeColor=#000000;strokeWidth=1;fontSize=16;fontColor=#330000;" parent="ZZcy7LWg9IrgokTyuWV1-1" vertex="1">
          <mxGeometry y="40" width="198" height="20" as="geometry" />
        </mxCell>
        <mxCell id="ZZcy7LWg9IrgokTyuWV1-6" value="VPC CIDR" style="shape=partialRectangle;connectable=0;fillColor=#FFFFFF;top=0;left=1;bottom=1;right=1;editable=1;overflow=hidden;labelBackgroundColor=none;strokeColor=#000000;strokeWidth=1;fontSize=12;fontColor=#330000;" parent="ZZcy7LWg9IrgokTyuWV1-5" vertex="1">
          <mxGeometry width="88" height="20" as="geometry">
            <mxRectangle width="88" height="20" as="alternateBounds" />
          </mxGeometry>
        </mxCell>
        <mxCell id="ZZcy7LWg9IrgokTyuWV1-7" value="local" style="shape=partialRectangle;connectable=0;fillColor=#FFFFFF;top=0;left=1;bottom=1;right=1;align=center;spacingLeft=6;overflow=hidden;labelBackgroundColor=none;strokeColor=#000000;strokeWidth=1;fontSize=12;fontColor=#330000;" parent="ZZcy7LWg9IrgokTyuWV1-5" vertex="1">
          <mxGeometry x="88" width="110" height="20" as="geometry">
            <mxRectangle width="110" height="20" as="alternateBounds" />
          </mxGeometry>
        </mxCell>
        <mxCell id="ZZcy7LWg9IrgokTyuWV1-8" value="" style="shape=tableRow;horizontal=0;startSize=0;swimlaneHead=0;swimlaneBody=0;fillColor=#FFFFFF;collapsible=0;dropTarget=0;points=[[0,0.5],[1,0.5]];portConstraint=eastwest;top=0;left=1;right=1;bottom=0;labelBackgroundColor=none;strokeColor=#000000;strokeWidth=1;fontSize=16;fontColor=#330000;" parent="ZZcy7LWg9IrgokTyuWV1-1" vertex="1">
          <mxGeometry y="60" width="198" height="20" as="geometry" />
        </mxCell>
        <mxCell id="ZZcy7LWg9IrgokTyuWV1-9" value="0.0.0.0/0" style="shape=partialRectangle;connectable=0;fillColor=#FFFFFF;top=0;left=1;bottom=1;right=1;editable=1;overflow=hidden;labelBackgroundColor=none;strokeColor=#000000;strokeWidth=1;fontSize=12;fontColor=#330000;" parent="ZZcy7LWg9IrgokTyuWV1-8" vertex="1">
          <mxGeometry width="88" height="20" as="geometry">
            <mxRectangle width="88" height="20" as="alternateBounds" />
          </mxGeometry>
        </mxCell>
        <mxCell id="ZZcy7LWg9IrgokTyuWV1-10" value="Internet Gateway" style="shape=partialRectangle;connectable=0;fillColor=#FFFFFF;top=0;left=1;bottom=1;right=1;align=center;spacingLeft=6;overflow=hidden;labelBackgroundColor=none;strokeColor=#000000;strokeWidth=1;fontSize=12;fontColor=#330000;" parent="ZZcy7LWg9IrgokTyuWV1-8" vertex="1">
          <mxGeometry x="88" width="110" height="20" as="geometry">
            <mxRectangle width="110" height="20" as="alternateBounds" />
          </mxGeometry>
        </mxCell>
        <mxCell id="A_zSdyRW-YI11dEX9rVC-1" value="Private Route Table" style="shape=table;startSize=20;container=1;collapsible=1;childLayout=tableLayout;fixedRows=0;rowLines=1;fontStyle=1;align=center;resizeLast=1;labelBackgroundColor=none;strokeColor=#000000;strokeWidth=1;fontSize=12;fillColor=#127eba;perimeterSpacing=0;rounded=0;shadow=0;sketch=0;swimlaneLine=1;swimlaneFillColor=none;right=1;left=1;columnLines=1;top=1;bottom=1;swimlaneHead=1;swimlaneBody=1;horizontal=1;fontColor=#FFFFFF;resizeLastRow=0;" parent="1" vertex="1">
          <mxGeometry x="409" y="683" width="220" height="80" as="geometry">
            <mxRectangle x="380" y="210" width="80" height="30" as="alternateBounds" />
          </mxGeometry>
        </mxCell>
        <mxCell id="A_zSdyRW-YI11dEX9rVC-2" value="" style="shape=tableRow;horizontal=0;startSize=0;swimlaneHead=0;swimlaneBody=0;fillColor=#FFFFFF;collapsible=0;dropTarget=0;points=[[0,0.5],[1,0.5]];portConstraint=eastwest;top=0;left=1;right=1;bottom=0;labelBackgroundColor=none;strokeColor=default;strokeWidth=1;fontSize=16;fontColor=#330000;align=center;fillOpacity=100;" parent="A_zSdyRW-YI11dEX9rVC-1" vertex="1">
          <mxGeometry y="20" width="220" height="20" as="geometry" />
        </mxCell>
        <mxCell id="A_zSdyRW-YI11dEX9rVC-3" value="Destination" style="shape=partialRectangle;connectable=0;fillColor=#FFFFFF;top=0;left=1;bottom=1;right=1;fontStyle=1;overflow=hidden;labelBackgroundColor=none;strokeColor=#000000;strokeWidth=1;fontSize=12;fontColor=#330000;" parent="A_zSdyRW-YI11dEX9rVC-2" vertex="1">
          <mxGeometry width="90" height="20" as="geometry">
            <mxRectangle width="90" height="20" as="alternateBounds" />
          </mxGeometry>
        </mxCell>
        <mxCell id="A_zSdyRW-YI11dEX9rVC-4" value="Target" style="shape=partialRectangle;connectable=0;fillColor=#FFFFFF;top=0;left=1;bottom=1;right=1;align=center;spacingLeft=6;fontStyle=1;overflow=hidden;labelBackgroundColor=none;strokeColor=#000000;strokeWidth=1;fontSize=12;fontColor=#330000;" parent="A_zSdyRW-YI11dEX9rVC-2" vertex="1">
          <mxGeometry x="90" width="130" height="20" as="geometry">
            <mxRectangle width="130" height="20" as="alternateBounds" />
          </mxGeometry>
        </mxCell>
        <mxCell id="A_zSdyRW-YI11dEX9rVC-5" value="" style="shape=tableRow;horizontal=0;startSize=0;swimlaneHead=0;swimlaneBody=0;fillColor=#FFFFFF;collapsible=0;dropTarget=0;points=[[0,0.5],[1,0.5]];portConstraint=eastwest;top=0;left=1;right=1;bottom=0;labelBackgroundColor=none;strokeColor=#000000;strokeWidth=1;fontSize=16;fontColor=#330000;" parent="A_zSdyRW-YI11dEX9rVC-1" vertex="1">
          <mxGeometry y="40" width="220" height="20" as="geometry" />
        </mxCell>
        <mxCell id="A_zSdyRW-YI11dEX9rVC-6" value="VPC CIDR" style="shape=partialRectangle;connectable=0;fillColor=#FFFFFF;top=0;left=1;bottom=1;right=1;editable=1;overflow=hidden;labelBackgroundColor=none;strokeColor=#000000;strokeWidth=1;fontSize=12;fontColor=#330000;" parent="A_zSdyRW-YI11dEX9rVC-5" vertex="1">
          <mxGeometry width="90" height="20" as="geometry">
            <mxRectangle width="90" height="20" as="alternateBounds" />
          </mxGeometry>
        </mxCell>
        <mxCell id="A_zSdyRW-YI11dEX9rVC-7" value="local" style="shape=partialRectangle;connectable=0;fillColor=#FFFFFF;top=0;left=1;bottom=1;right=1;align=center;spacingLeft=6;overflow=hidden;labelBackgroundColor=none;strokeColor=#000000;strokeWidth=1;fontSize=12;fontColor=#330000;" parent="A_zSdyRW-YI11dEX9rVC-5" vertex="1">
          <mxGeometry x="90" width="130" height="20" as="geometry">
            <mxRectangle width="130" height="20" as="alternateBounds" />
          </mxGeometry>
        </mxCell>
        <mxCell id="A_zSdyRW-YI11dEX9rVC-8" value="" style="shape=tableRow;horizontal=0;startSize=0;swimlaneHead=0;swimlaneBody=0;fillColor=#FFFFFF;collapsible=0;dropTarget=0;points=[[0,0.5],[1,0.5]];portConstraint=eastwest;top=0;left=1;right=1;bottom=0;labelBackgroundColor=none;strokeColor=#000000;strokeWidth=1;fontSize=16;fontColor=#330000;" parent="A_zSdyRW-YI11dEX9rVC-1" vertex="1">
          <mxGeometry y="60" width="220" height="20" as="geometry" />
        </mxCell>
        <mxCell id="A_zSdyRW-YI11dEX9rVC-9" value="0.0.0.0/0" style="shape=partialRectangle;connectable=0;fillColor=#FFFFFF;top=0;left=1;bottom=1;right=1;editable=1;overflow=hidden;labelBackgroundColor=none;strokeColor=#000000;strokeWidth=1;fontSize=12;fontColor=#330000;" parent="A_zSdyRW-YI11dEX9rVC-8" vertex="1">
          <mxGeometry width="90" height="20" as="geometry">
            <mxRectangle width="90" height="20" as="alternateBounds" />
          </mxGeometry>
        </mxCell>
        <mxCell id="A_zSdyRW-YI11dEX9rVC-10" value="Transit Gateway" style="shape=partialRectangle;connectable=0;fillColor=#FFFFFF;top=0;left=1;bottom=1;right=1;align=center;spacingLeft=6;overflow=hidden;labelBackgroundColor=none;strokeColor=#000000;strokeWidth=1;fontSize=12;fontColor=#330000;" parent="A_zSdyRW-YI11dEX9rVC-8" vertex="1">
          <mxGeometry x="90" width="130" height="20" as="geometry">
            <mxRectangle width="130" height="20" as="alternateBounds" />
          </mxGeometry>
        </mxCell>
        <mxCell id="rMoLMh5zpQFOaJVMMnbp-3" style="rounded=0;orthogonalLoop=1;jettySize=auto;html=1;strokeColor=#990000;strokeWidth=2;fontSize=20;fontColor=#66CC00;endArrow=classic;endFill=1;entryX=0;entryY=0.5;entryDx=0;entryDy=0;" parent="1" source="UXceuLxqz-v_dB1o4-cX-60" target="twSOo08IM1K4SMwuDOF1-1" edge="1">
          <mxGeometry relative="1" as="geometry">
            <mxPoint x="-262" y="590" as="sourcePoint" />
            <mxPoint x="-160" y="590" as="targetPoint" />
          </mxGeometry>
        </mxCell>
        <mxCell id="twSOo08IM1K4SMwuDOF1-1" value="Public subnet" style="points=[[0,0],[0.25,0],[0.5,0],[0.75,0],[1,0],[1,0.25],[1,0.5],[1,0.75],[1,1],[0.75,1],[0.5,1],[0.25,1],[0,1],[0,0.75],[0,0.5],[0,0.25]];outlineConnect=0;gradientColor=none;html=1;whiteSpace=wrap;fontSize=12;fontStyle=0;container=0;pointerEvents=0;collapsible=0;recursiveResize=0;shape=mxgraph.aws4.group;grIcon=mxgraph.aws4.group_security_group;grStroke=0;strokeColor=#248814;fillColor=#E9F3E6;verticalAlign=top;align=left;spacingLeft=30;fontColor=#248814;dashed=0;labelBackgroundColor=#FFFFFF;labelBorderColor=none;" parent="1" vertex="1">
          <mxGeometry x="111" y="379.5" width="160" height="79.5" as="geometry" />
        </mxCell>
        <mxCell id="twSOo08IM1K4SMwuDOF1-2" value="Public subnet" style="points=[[0,0],[0.25,0],[0.5,0],[0.75,0],[1,0],[1,0.25],[1,0.5],[1,0.75],[1,1],[0.75,1],[0.5,1],[0.25,1],[0,1],[0,0.75],[0,0.5],[0,0.25]];outlineConnect=0;gradientColor=none;html=1;whiteSpace=wrap;fontSize=12;fontStyle=0;container=0;pointerEvents=0;collapsible=0;recursiveResize=0;shape=mxgraph.aws4.group;grIcon=mxgraph.aws4.group_security_group;grStroke=0;strokeColor=#248814;fillColor=#E9F3E6;verticalAlign=top;align=left;spacingLeft=30;fontColor=#248814;dashed=0;labelBackgroundColor=#FFFFFF;labelBorderColor=none;" parent="1" vertex="1">
          <mxGeometry x="111" y="549.5" width="160" height="79.5" as="geometry" />
        </mxCell>
        <mxCell id="rMoLMh5zpQFOaJVMMnbp-4" style="rounded=0;orthogonalLoop=1;jettySize=auto;html=1;strokeColor=#990000;strokeWidth=2;fontSize=20;fontColor=#66CC00;endArrow=classic;endFill=1;entryX=0;entryY=0.5;entryDx=0;entryDy=0;" parent="1" source="UXceuLxqz-v_dB1o4-cX-60" target="twSOo08IM1K4SMwuDOF1-2" edge="1">
          <mxGeometry relative="1" as="geometry">
            <mxPoint x="-82" y="590" as="sourcePoint" />
            <mxPoint x="59" y="593" as="targetPoint" />
          </mxGeometry>
        </mxCell>
        <mxCell id="rMoLMh5zpQFOaJVMMnbp-7" value="AWS Backup" style="sketch=0;points=[[0,0,0],[0.25,0,0],[0.5,0,0],[0.75,0,0],[1,0,0],[0,1,0],[0.25,1,0],[0.5,1,0],[0.75,1,0],[1,1,0],[0,0.25,0],[0,0.5,0],[0,0.75,0],[1,0.25,0],[1,0.5,0],[1,0.75,0]];outlineConnect=0;fontColor=#232F3E;fillColor=#7AA116;strokeColor=#ffffff;dashed=0;verticalLabelPosition=bottom;verticalAlign=top;align=center;html=1;fontSize=12;fontStyle=0;aspect=fixed;shape=mxgraph.aws4.resourceIcon;resIcon=mxgraph.aws4.backup;" parent="1" vertex="1">
          <mxGeometry x="281.5" y="915" width="78" height="78" as="geometry" />
        </mxCell>
        <mxCell id="rMoLMh5zpQFOaJVMMnbp-8" value="Amazon Route 53" style="sketch=0;points=[[0,0,0],[0.25,0,0],[0.5,0,0],[0.75,0,0],[1,0,0],[0,1,0],[0.25,1,0],[0.5,1,0],[0.75,1,0],[1,1,0],[0,0.25,0],[0,0.5,0],[0,0.75,0],[1,0.25,0],[1,0.5,0],[1,0.75,0]];outlineConnect=0;fontColor=#232F3E;fillColor=#8C4FFF;strokeColor=#ffffff;dashed=0;verticalLabelPosition=bottom;verticalAlign=top;align=center;html=1;fontSize=12;fontStyle=0;aspect=fixed;shape=mxgraph.aws4.resourceIcon;resIcon=mxgraph.aws4.route_53;" parent="1" vertex="1">
          <mxGeometry x="401.5" y="915" width="78" height="78" as="geometry" />
        </mxCell>
        <mxCell id="rMoLMh5zpQFOaJVMMnbp-9" value="AWS IAM Identity Center" style="sketch=0;points=[[0,0,0],[0.25,0,0],[0.5,0,0],[0.75,0,0],[1,0,0],[0,1,0],[0.25,1,0],[0.5,1,0],[0.75,1,0],[1,1,0],[0,0.25,0],[0,0.5,0],[0,0.75,0],[1,0.25,0],[1,0.5,0],[1,0.75,0]];outlineConnect=0;fontColor=#232F3E;fillColor=#DD344C;strokeColor=#ffffff;dashed=0;verticalLabelPosition=bottom;verticalAlign=top;align=center;html=1;fontSize=12;fontStyle=0;aspect=fixed;shape=mxgraph.aws4.resourceIcon;resIcon=mxgraph.aws4.single_sign_on;" parent="1" vertex="1">
          <mxGeometry x="-78.5" y="915" width="78" height="78" as="geometry" />
        </mxCell>
        <mxCell id="rMoLMh5zpQFOaJVMMnbp-11" value="IAM Acess Analyzer" style="sketch=0;outlineConnect=0;fontColor=#232F3E;gradientColor=none;fillColor=#DD344C;strokeColor=none;dashed=0;verticalLabelPosition=bottom;verticalAlign=top;align=center;html=1;fontSize=12;fontStyle=0;aspect=fixed;pointerEvents=1;shape=mxgraph.aws4.access_analyzer;" parent="1" vertex="1">
          <mxGeometry x="621.5" y="915" width="78" height="77" as="geometry" />
        </mxCell>
        <mxCell id="rMoLMh5zpQFOaJVMMnbp-12" value="IAM Role&lt;div&gt;(Permission Set)&lt;/div&gt;" style="sketch=0;outlineConnect=0;fontColor=#232F3E;gradientColor=none;fillColor=#DD344C;strokeColor=none;dashed=0;verticalLabelPosition=bottom;verticalAlign=top;align=center;html=1;fontSize=12;fontStyle=0;aspect=fixed;pointerEvents=1;shape=mxgraph.aws4.role;" parent="1" vertex="1">
          <mxGeometry x="511.5" y="932" width="78" height="44" as="geometry" />
        </mxCell>
        <mxCell id="rMoLMh5zpQFOaJVMMnbp-13" value="Encryption Key" style="sketch=0;outlineConnect=0;fontColor=#232F3E;gradientColor=none;fillColor=#DD344C;strokeColor=none;dashed=0;verticalLabelPosition=bottom;verticalAlign=top;align=center;html=1;fontSize=12;fontStyle=0;aspect=fixed;pointerEvents=1;shape=mxgraph.aws4.data_encryption_key;" parent="1" vertex="1">
          <mxGeometry x="739.5" y="914" width="62" height="78" as="geometry" />
        </mxCell>
        <mxCell id="rMoLMh5zpQFOaJVMMnbp-14" value="S3 Bucket&lt;div&gt;(Logs)&lt;/div&gt;" style="sketch=0;outlineConnect=0;fontColor=#232F3E;gradientColor=none;fillColor=#7AA116;strokeColor=none;dashed=0;verticalLabelPosition=bottom;verticalAlign=top;align=center;html=1;fontSize=12;fontStyle=0;aspect=fixed;pointerEvents=1;shape=mxgraph.aws4.bucket;" parent="1" vertex="1">
          <mxGeometry x="931.5" y="914" width="75" height="78" as="geometry" />
        </mxCell>
        <mxCell id="rMoLMh5zpQFOaJVMMnbp-15" value="AWS Backup Vault" style="sketch=0;outlineConnect=0;fontColor=#232F3E;gradientColor=none;fillColor=#7AA116;strokeColor=none;dashed=0;verticalLabelPosition=bottom;verticalAlign=top;align=center;html=1;fontSize=12;fontStyle=0;aspect=fixed;pointerEvents=1;shape=mxgraph.aws4.aws_backup_vault_lock;" parent="1" vertex="1">
          <mxGeometry x="1038.5" y="914" width="78" height="78" as="geometry" />
        </mxCell>
        <mxCell id="rMoLMh5zpQFOaJVMMnbp-16" value="Internet&lt;div&gt;(Outbound)&lt;/div&gt;" style="sketch=0;outlineConnect=0;fontColor=#232F3E;gradientColor=none;fillColor=#232F3D;strokeColor=none;dashed=0;verticalLabelPosition=bottom;verticalAlign=top;align=center;html=1;fontSize=12;fontStyle=0;aspect=fixed;pointerEvents=1;shape=mxgraph.aws4.internet_alt22;labelBackgroundColor=#FFFFFF;labelBorderColor=none;container=0;" parent="1" vertex="1">
          <mxGeometry x="1320" y="330.5" width="78" height="78" as="geometry" />
        </mxCell>
        <mxCell id="rMoLMh5zpQFOaJVMMnbp-17" style="edgeStyle=orthogonalEdgeStyle;rounded=0;orthogonalLoop=1;jettySize=auto;html=1;strokeColor=#4D4D4D;strokeWidth=2;startArrow=none;startFill=0;endArrow=classic;endFill=1;exitX=1;exitY=0.5;exitDx=0;exitDy=0;align=center;verticalAlign=middle;fontFamily=Helvetica;fontSize=20;fontColor=#66CC00;labelBackgroundColor=default;" parent="1" source="rMoLMh5zpQFOaJVMMnbp-18" target="rMoLMh5zpQFOaJVMMnbp-16" edge="1">
          <mxGeometry relative="1" as="geometry">
            <mxPoint x="1134" y="280.25" as="sourcePoint" />
          </mxGeometry>
        </mxCell>
        <mxCell id="rMoLMh5zpQFOaJVMMnbp-18" value="Egress/Inspection VPC" style="points=[[0,0],[0.25,0],[0.5,0],[0.75,0],[1,0],[1,0.25],[1,0.5],[1,0.75],[1,1],[0.75,1],[0.5,1],[0.25,1],[0,1],[0,0.75],[0,0.5],[0,0.25]];outlineConnect=0;gradientColor=none;html=1;whiteSpace=wrap;fontSize=14;fontStyle=0;container=0;pointerEvents=0;collapsible=0;recursiveResize=0;shape=mxgraph.aws4.group;grIcon=mxgraph.aws4.group_vpc;strokeColor=#CC0000;fillColor=default;verticalAlign=top;align=left;spacingLeft=30;fontColor=#000000;dashed=0;labelBackgroundColor=#FFFFFF;labelBorderColor=none;" parent="1" vertex="1">
          <mxGeometry x="961" y="299.5" width="230" height="140.5" as="geometry" />
        </mxCell>
        <mxCell id="rMoLMh5zpQFOaJVMMnbp-19" value="Firewall&lt;div&gt;(Optional)&lt;/div&gt;" style="sketch=0;outlineConnect=0;fontColor=#232F3E;gradientColor=none;fillColor=#CC0000;strokeColor=none;dashed=0;verticalLabelPosition=bottom;verticalAlign=top;align=center;html=1;fontSize=12;fontStyle=0;aspect=fixed;pointerEvents=1;shape=mxgraph.aws4.generic_firewall;container=0;" parent="1" vertex="1">
          <mxGeometry x="991" y="337.5" width="78" height="66" as="geometry" />
        </mxCell>
        <mxCell id="rMoLMh5zpQFOaJVMMnbp-20" value="NAT Gateway" style="sketch=0;outlineConnect=0;fontColor=#232F3E;gradientColor=none;fillColor=#8C4FFF;strokeColor=none;dashed=0;verticalLabelPosition=bottom;verticalAlign=top;align=center;html=1;fontSize=12;fontStyle=0;aspect=fixed;pointerEvents=1;shape=mxgraph.aws4.nat_gateway;" parent="1" vertex="1">
          <mxGeometry x="1101" y="337.5" width="64.75" height="64.75" as="geometry" />
        </mxCell>
        <mxCell id="rMoLMh5zpQFOaJVMMnbp-25" value="Other VPCs" style="points=[[0,0],[0.25,0],[0.5,0],[0.75,0],[1,0],[1,0.25],[1,0.5],[1,0.75],[1,1],[0.75,1],[0.5,1],[0.25,1],[0,1],[0,0.75],[0,0.5],[0,0.25]];outlineConnect=0;gradientColor=none;html=1;whiteSpace=wrap;fontSize=14;fontStyle=0;container=0;pointerEvents=0;collapsible=0;recursiveResize=0;shape=mxgraph.aws4.group;grIcon=mxgraph.aws4.group_vpc;strokeColor=#248814;fillColor=default;verticalAlign=top;align=left;spacingLeft=30;fontColor=#000000;dashed=0;labelBackgroundColor=#FFFFFF;labelBorderColor=none;" parent="1" vertex="1">
          <mxGeometry x="981" y="698.5" width="230" height="121.5" as="geometry" />
        </mxCell>
        <mxCell id="rMoLMh5zpQFOaJVMMnbp-24" value="Other VPCs" style="points=[[0,0],[0.25,0],[0.5,0],[0.75,0],[1,0],[1,0.25],[1,0.5],[1,0.75],[1,1],[0.75,1],[0.5,1],[0.25,1],[0,1],[0,0.75],[0,0.5],[0,0.25]];outlineConnect=0;gradientColor=none;html=1;whiteSpace=wrap;fontSize=14;fontStyle=0;container=0;pointerEvents=0;collapsible=0;recursiveResize=0;shape=mxgraph.aws4.group;grIcon=mxgraph.aws4.group_vpc;strokeColor=#248814;fillColor=default;verticalAlign=top;align=left;spacingLeft=30;fontColor=#000000;dashed=0;labelBackgroundColor=#FFFFFF;labelBorderColor=none;" parent="1" vertex="1">
          <mxGeometry x="971" y="688.5" width="230" height="121.5" as="geometry" />
        </mxCell>
        <mxCell id="rMoLMh5zpQFOaJVMMnbp-22" value="VPC" style="points=[[0,0],[0.25,0],[0.5,0],[0.75,0],[1,0],[1,0.25],[1,0.5],[1,0.75],[1,1],[0.75,1],[0.5,1],[0.25,1],[0,1],[0,0.75],[0,0.5],[0,0.25]];outlineConnect=0;gradientColor=none;html=1;whiteSpace=wrap;fontSize=14;fontStyle=0;container=0;pointerEvents=0;collapsible=0;recursiveResize=0;shape=mxgraph.aws4.group;grIcon=mxgraph.aws4.group_vpc;strokeColor=#248814;fillColor=default;verticalAlign=top;align=left;spacingLeft=30;fontColor=#000000;dashed=0;labelBackgroundColor=#FFFFFF;labelBorderColor=none;" parent="1" vertex="1">
          <mxGeometry x="961" y="678.5" width="230" height="121.5" as="geometry" />
        </mxCell>
        <mxCell id="rMoLMh5zpQFOaJVMMnbp-27" style="rounded=0;orthogonalLoop=1;jettySize=auto;html=1;strokeColor=#990000;strokeWidth=2;fontSize=20;fontColor=#66CC00;endArrow=classic;endFill=1;exitX=0;exitY=0.5;exitDx=0;exitDy=0;edgeStyle=orthogonalEdgeStyle;" parent="1" source="ZZcy7LWg9IrgokTyuWV1-5" edge="1">
          <mxGeometry relative="1" as="geometry">
            <mxPoint x="48" y="537" as="sourcePoint" />
            <mxPoint x="-1" y="560" as="targetPoint" />
          </mxGeometry>
        </mxCell>
        <mxCell id="rMoLMh5zpQFOaJVMMnbp-28" value="Security Policies" style="sketch=0;outlineConnect=0;fontColor=#232F3E;gradientColor=none;fillColor=#DD344C;strokeColor=none;dashed=0;verticalLabelPosition=bottom;verticalAlign=top;align=center;html=1;fontSize=12;fontStyle=0;aspect=fixed;pointerEvents=1;shape=mxgraph.aws4.permissions;" parent="1" vertex="1">
          <mxGeometry x="839.5" y="914" width="62" height="78" as="geometry" />
        </mxCell>
        <mxCell id="rMoLMh5zpQFOaJVMMnbp-29" value="Private Hosted Zone" style="sketch=0;outlineConnect=0;fontColor=#232F3E;gradientColor=none;fillColor=#8C4FFF;strokeColor=none;dashed=0;verticalLabelPosition=bottom;verticalAlign=top;align=center;html=1;fontSize=12;fontStyle=0;aspect=fixed;pointerEvents=1;shape=mxgraph.aws4.hosted_zone;" parent="1" vertex="1">
          <mxGeometry x="1160" y="915" width="78" height="77" as="geometry" />
        </mxCell>
        <mxCell id="rMoLMh5zpQFOaJVMMnbp-30" value="Amazon GuardDuty" style="sketch=0;points=[[0,0,0],[0.25,0,0],[0.5,0,0],[0.75,0,0],[1,0,0],[0,1,0],[0.25,1,0],[0.5,1,0],[0.75,1,0],[1,1,0],[0,0.25,0],[0,0.5,0],[0,0.75,0],[1,0.25,0],[1,0.5,0],[1,0.75,0]];outlineConnect=0;fontColor=#232F3E;fillColor=#DD344C;strokeColor=#ffffff;dashed=0;verticalLabelPosition=bottom;verticalAlign=top;align=center;html=1;fontSize=12;fontStyle=0;aspect=fixed;shape=mxgraph.aws4.resourceIcon;resIcon=mxgraph.aws4.guardduty;" parent="1" vertex="1">
          <mxGeometry x="170" y="915" width="78" height="78" as="geometry" />
        </mxCell>
        <mxCell id="rMoLMh5zpQFOaJVMMnbp-31" value="AWS Security Hub" style="sketch=0;points=[[0,0,0],[0.25,0,0],[0.5,0,0],[0.75,0,0],[1,0,0],[0,1,0],[0.25,1,0],[0.5,1,0],[0.75,1,0],[1,1,0],[0,0.25,0],[0,0.5,0],[0,0.75,0],[1,0.25,0],[1,0.5,0],[1,0.75,0]];outlineConnect=0;fontColor=#232F3E;fillColor=#DD344C;strokeColor=#ffffff;dashed=0;verticalLabelPosition=bottom;verticalAlign=top;align=center;html=1;fontSize=12;fontStyle=0;aspect=fixed;shape=mxgraph.aws4.resourceIcon;resIcon=mxgraph.aws4.security_hub;" parent="1" vertex="1">
          <mxGeometry x="50" y="915" width="78" height="78" as="geometry" />
        </mxCell>
      </root>
    </mxGraphModel>
  </diagram>
</mxfile>
